<?xml version="1.0" encoding="UTF-8" standalone="no"?>
<!-- Created with Inkscape (http://www.inkscape.org/) -->

<svg
   width="500"
   height="496"
   viewBox="0 0 132.29166 131.23334"
   version="1.1"
   id="svg5"
   xml:space="preserve"
   sodipodi:docname="yuifunami.svg"
   inkscape:version="1.2.2 (b0a8486541, 2022-12-01)"
   xmlns:inkscape="http://www.inkscape.org/namespaces/inkscape"
   xmlns:sodipodi="http://sodipodi.sourceforge.net/DTD/sodipodi-0.dtd"
   xmlns="http://www.w3.org/2000/svg"
   xmlns:svg="http://www.w3.org/2000/svg"><sodipodi:namedview
     id="namedview7"
     pagecolor="#ffffff"
     bordercolor="#000000"
     borderopacity="0.25"
     inkscape:showpageshadow="2"
     inkscape:pageopacity="0"
     inkscape:pagecheckerboard="true"
     inkscape:deskcolor="#d1d1d1"
     inkscape:document-units="mm"
     showgrid="false"
     inkscape:zoom="4"
     inkscape:cx="432.25"
     inkscape:cy="311.875"
     inkscape:window-width="1536"
     inkscape:window-height="900"
     inkscape:window-x="0"
     inkscape:window-y="28"
     inkscape:window-maximized="1"
     inkscape:current-layer="layer2" /><defs
     id="defs2" /><g
     inkscape:label="레이어 1"
     inkscape:groupmode="layer"
     id="layer1"><g
       inkscape:groupmode="layer"
       id="layer2"
       inkscape:label="레이어 2"><ellipse
         style="fill:#ffffff;stroke-width:0.264583"
         id="path596"
         cy="65.616669"
         cx="66.145836"
         rx="60.92897"
         ry="59.082184" /></g><path
       id="path183"
       style="fill:#000000;stroke-width:0.264583"
       d="M 66.913228,3.7455078 C 65.920877,3.7345176 64.58648,3.7996534 63.53514,3.9212077 62.133347,4.0832794 59.736285,4.3528483 58.208333,4.5201375 52.350295,5.1615176 45.453748,7.2760244 39.290625,10.319784 24.831122,17.460817 13.341608,30.570474 8.4511637,45.508333 -4.0554184,83.709678 20.920259,122.19922 60.986458,126.4698 90.455416,129.61083 119.07527,109.24142 126.22537,80.038009 135.13205,43.660221 109.65596,7.626698 72.628125,4.229716 70.881909,4.0695149 68.69498,3.8684268 67.768473,3.7827148 67.536859,3.7612885 67.244017,3.7491712 66.913228,3.7455078 Z m -0.547253,2.7889771 c 24.503432,0.03401 48.430565,15.3541331 56.555205,42.1023401 2.47448,8.146384 3.57388,23.685719 1.34049,18.945096 -1.12271,-2.382877 -2.26476,-4.250697 -3.20859,-5.344376 -0.0346,-0.02904 -0.0691,-0.06232 -0.10336,-0.100769 -0.0572,-0.06412 -0.11568,-0.127698 -0.16278,-0.199988 -0.003,-0.0045 0.43291,0.570566 0.42991,0.566126 0.0558,-0.600564 -6.40934,-9.271794 -6.73834,-9.170826 -0.38091,0.116904 -1.64446,0.775946 -1.79607,0.915516 0.004,0.0027 5.94911,7.366218 5.95351,7.369318 0.0401,0.0296 0.0814,0.05927 0.11317,0.09819 0.0383,0.04509 0.0725,0.09307 0.0997,0.145728 0.0135,0.02786 0.0343,0.0725 0.0279,0.109037 0.64403,0.568416 3.84453,5.440035 5.17746,7.918896 l 1.08779,2.022616 -0.66869,3.665926 c -1.94938,10.689014 -7.84119,22.346282 -15.10709,29.889655 -0.99728,1.03535 -2.36336,2.37544 -3.03547,2.97811 l -1.22163,1.09554 -0.308,-1.56373 c -0.16911,-0.86028 -0.53443,-1.85289 -0.81183,-2.20555 -0.27737,-0.35266 -0.57139,-0.95903 -0.65319,-1.34772 -0.0818,-0.3887 -0.20755,-0.99121 -0.27905,-1.33894 -0.0972,-0.47271 -0.34756,-0.66532 -0.99219,-0.76222 -4.963602,-0.74605 -11.384307,-3.193136 -17.191718,-6.552579 -3.037162,-1.756919 -2.968228,-3.365529 0.361219,-8.463049 l 1.945617,-2.97863 0.305408,2.748669 c 0.432318,3.89332 1.448675,7.706896 2.513542,9.429916 0.752059,1.216884 0.788708,1.070786 0.132291,-0.529167 -1.350972,-3.29289 -0.613974,-13.656824 1.223698,-17.208252 1.702812,-3.290761 2.440414,-5.121048 3.95118,-9.799918 L 96.688155,64.690625 97.006482,69.85 c 0.302255,4.89962 0.629021,7.317704 1.55391,11.493872 0.581903,2.627431 0.747113,2.505499 0.516765,-0.381372 -0.110309,-1.382431 -0.198771,-2.632604 -0.196371,-2.778125 0.0024,-0.145521 0.08506,-2.467291 0.183451,-5.159375 0.166097,-4.54456 0.344816,-6.248871 1.358573,-12.964583 0.72102,-4.77626 0.91261,-7.011928 0.91261,-10.642762 0,-2.412132 0.0958,-3.644738 0.28318,-3.644738 0.70444,0 6.30647,4.242782 9.10952,6.89932 2.11666,2.005918 2.11669,2.006047 3.12901,1.425753 0.38397,-0.220108 0.67716,-0.479639 0.83199,-0.683163 -0.004,-0.0059 -0.007,-0.01217 -0.0109,-0.01809 -0.01,-0.01656 -0.0184,-0.03351 -0.0274,-0.05064 -0.003,-0.0064 -0.006,-0.01269 -0.009,-0.01912 -0.0159,-0.0028 -0.0331,-0.01372 -0.0496,-0.03462 -0.0118,-0.01435 -0.007,-0.0065 -0.0186,-0.02325 -0.0163,-0.02534 -0.0313,-0.05194 -0.0455,-0.07855 -0.003,-0.0055 -0.005,-0.01081 -0.007,-0.01602 -0.002,-1.91e-4 -0.003,-8.9e-4 -0.005,-10e-4 h -5.2e-4 c -0.0472,-0.0064 -0.0694,-0.03189 -0.0682,-0.05529 -0.17951,-0.01558 -1.39229,-1.059981 -2.75746,-2.378666 -2.98532,-2.88388 -5.77777,-5.186137 -8.39018,-6.917408 -1.87226,-1.240745 -1.87249,-1.240788 -2.20607,-3.81217 C 100.07221,32.137977 99.102897,28.823187 96.471114,24.209375 85.557852,5.0772109 61.77142,1.6202857 42.841313,16.415019 34.504153,22.930873 29.405737,31.914238 26.976131,44.370418 26.665556,45.962672 26.596704,46.06111 24.638806,47.715951 18.492874,52.910525 13.028486,59.71101 9.1007365,67.052238 7.6925459,69.684233 7.5042629,69.143094 7.7829875,63.263839 8.518334,47.75275 14.314282,34.414075 24.92406,23.814567 36.753371,11.996706 51.663916,6.5140787 66.365975,6.5344849 Z M 60.73066,26.01805 c 0.04713,0.0076 0.09268,0.02444 0.135909,0.05116 0.366683,0.226623 0.167285,1.838311 -0.296623,2.397269 -0.363142,0.437578 -0.937013,0.487573 -1.175122,0.10232 -0.4529,-0.732816 0.628927,-2.664444 1.335836,-2.550749 z m 1.985409,0.494027 c 0.166624,0.0048 0.254764,0.245106 0.254764,0.702283 0,0.882908 -0.445332,1.357711 -0.685746,0.731221 -0.216384,-0.563873 -0.03459,-1.291379 0.355017,-1.421102 0.02699,-0.009 0.05217,-0.01309 0.07596,-0.0124 z m 2.840136,0.282153 c 0.170659,-0.02516 0.325045,0.113247 0.325045,0.435632 0,0.324995 -0.171076,0.551388 -0.416512,0.551388 -0.246389,0 -0.381369,-0.180236 -0.330729,-0.441317 0.06437,-0.331872 0.251537,-0.520545 0.422196,-0.545703 z m -27.697017,0.722437 c 0.328384,0 0.327402,0.0023 -0.417546,1.686718 -0.678473,1.534167 -0.929142,1.815926 -0.929142,1.042831 0,-0.606637 1.047405,-2.729549 1.346688,-2.729549 z m -2.331641,0.661458 -0.172599,0.912089 c -0.09506,0.501717 -0.352539,1.186342 -0.572058,1.521354 -0.428448,0.653891 -0.785552,0.770119 -1.050065,0.342098 -0.27041,-0.437514 0.08784,-1.178467 0.967383,-2.001428 z m 3.89537,0.396875 c 0.14552,0 0.264583,0.238125 0.264583,0.529167 0,0.309622 -0.176504,0.529166 -0.425297,0.529166 -0.279003,0 -0.369969,-0.143945 -0.264583,-0.418579 0.08833,-0.230183 0.160713,-0.468306 0.160713,-0.529166 0,-0.06086 0.119063,-0.110588 0.264584,-0.110588 z m 55.343908,1.322917 c 0.652867,0 1.253368,2.503271 0.851628,3.550171 -0.190008,0.49514 -0.92586,0.549519 -1.374076,0.101285 -0.697109,-0.697091 -0.274375,-3.651456 0.522448,-3.651456 z m -4.292244,0.529166 c 0.16165,0 0.358649,0.168682 0.437699,0.374654 0.192468,0.501568 0.01721,1.945819 -0.195337,1.609721 -0.362444,-0.573129 -0.534846,-1.984375 -0.242362,-1.984375 z m -1.07642,0.264584 c 0.22993,0 0.549455,0.873313 0.556555,1.521354 0.0039,0.35665 -0.328137,0.440294 -0.613916,0.154512 -0.262055,-0.262042 -0.213665,-1.675866 0.05736,-1.675866 z m -34.5736,5.091679 c 0.163803,-0.0016 0.196004,0.772956 0.200504,2.323372 0.01686,5.834524 1.073177,11.192008 2.919719,14.811499 0.390818,0.766081 0.536245,1.606668 0.559655,3.22926 l 0.03204,2.193148 0.345198,-2.116667 c 0.189941,-1.16415 0.354423,-2.612898 0.365353,-3.219441 0.01093,-0.606562 0.101024,-1.314826 0.200504,-1.574065 0.188632,-0.491553 0.16116,-0.561179 2.34301,5.917985 1.311329,3.894153 1.523277,3.760775 1.78542,-1.124479 0.08069,-1.50367 0.287303,-1.215007 0.725537,1.013375 0.404299,2.055755 0.411368,2.030379 0.889869,-3.029272 0.228708,-2.418541 0.654757,-5.930936 0.946712,-7.805209 0.291954,-1.874258 0.667752,-4.301046 0.835091,-5.392435 0.442888,-2.888564 0.556955,-2.776113 1.548226,1.523938 0.792693,3.438643 0.918178,4.494832 1.058333,8.927103 0.117253,3.708106 0.216104,4.73771 0.377238,3.923792 0.169775,-0.857559 0.361596,-1.139581 0.861446,-1.265039 1.161146,-0.291433 1.639272,0.631969 0.611849,1.18184 -0.2951,0.157943 -0.463497,0.405242 -0.374137,0.549837 0.08936,0.144595 0.05021,0.406353 -0.08682,0.581877 -0.706522,0.904981 -0.588492,1.606947 0.153479,0.913122 1.980608,-1.852089 2.883424,-1.817397 2.317171,0.0894 -1.093199,3.681211 0.235709,6.982279 3.086633,7.666199 1.499451,0.359717 4.764377,0.189741 4.912878,-0.255798 0.05366,-0.160978 0.510543,-0.786923 1.014926,-1.390613 1.259574,-1.507618 1.669425,-2.593448 1.488281,-3.943945 -0.115057,-0.85778 -0.07278,-1.072271 0.181384,-0.91519 0.458481,0.283358 1.071769,1.825804 1.071769,2.69596 0,0.696322 0.01399,0.70357 0.414962,0.207222 0.400732,-0.496037 0.410268,-0.491076 0.286288,0.147795 -0.07061,0.363785 -0.390192,2.090242 -0.710551,3.836458 -0.320379,1.746216 -0.934059,4.466431 -1.363741,6.044592 -1.233979,4.532144 -0.603363,3.946869 1.349271,-1.251603 0.583523,-1.55347 1.139003,-3.238928 1.234033,-3.745508 0.592508,-3.158283 0.815962,-0.35189 0.253732,3.185852 -1.324527,8.334239 -1.136419,7.809971 -3.571359,9.963733 -2.395867,2.119218 -10.793517,6.715348 -15.669844,8.576221 -2.611512,0.996587 -3.080918,1.051287 -4.447791,0.518831 -0.509298,-0.198383 -2.533419,-0.862504 -4.497916,-1.475879 -8.2688,-2.581725 -15.346628,-7.544605 -15.345834,-10.760066 2.46e-4,-0.991039 -1.100946,-3.190073 -1.539957,-3.075265 -1.323985,0.346236 -2.336944,-1.706137 -2.110983,-4.276741 0.09304,-1.058316 0.0927,-1.058316 0.810804,0.396875 0.39494,0.800349 0.651627,1.187317 0.570507,0.859895 -0.222285,-0.897243 0.06339,-0.735881 1.521871,0.859896 1.703773,1.864177 2.231705,1.904994 0.646989,0.05013 -3.665247,-4.290213 -5.517182,-14.778315 -3.897953,-22.076688 0.547798,-2.469116 1.088306,-2.234139 1.088306,0.472839 0,1.344503 0.255291,3.244666 0.694014,5.168677 0.642067,2.81565 0.661805,3.07817 0.264583,3.517098 -0.649603,0.717805 -0.559689,2.880644 0.177767,4.275191 0.903333,1.708191 1.123554,1.570668 1.026294,-0.641304 -0.09998,-2.273975 0.318102,-3.362351 1.532723,-3.990454 1.194637,-0.617781 1.691949,-0.543334 1.292428,0.193786 -2.437689,4.49765 2.28426,9.708679 6.972184,7.694104 2.533386,-1.088685 3.361666,-5.500449 1.53169,-8.160225 -0.901413,-1.310166 -0.684935,-1.483335 0.764811,-0.611849 0.957254,0.575433 0.957031,0.575442 0.295589,-0.174667 -0.517145,-0.586463 -0.557226,-0.712948 -0.184485,-0.578776 0.96634,0.347877 0.104892,-0.416378 -1.040246,-0.922941 -1.326249,-0.586654 -1.635703,-1.440067 -0.428915,-1.182873 0.70511,0.150278 0.701813,0.142067 -0.102836,-0.269751 -1.317317,-0.674222 -1.417283,-7.986807 -0.123507,-9.032524 0.350818,-0.283551 0.360479,-0.379353 0.05788,-0.566373 -0.48261,-0.29827 -0.0018,-3.72853 0.889868,-6.35 0.529108,-1.555632 0.824234,-2.333657 0.988054,-2.335258 z m 19.616373,1.826761 c 0.266573,0.03699 0.722254,1.094159 1.606621,3.204973 l 1.190108,2.84117 -1.114144,-0.03617 c -2.487607,-0.08045 -2.361344,0.10073 -2.154391,-3.093351 0.127678,-1.970388 0.20525,-2.953606 0.471806,-2.916618 z m -26.764258,0.24598 c 0.139191,-0.02212 0.127779,0.703458 0.02584,2.912484 -0.147133,3.187726 0.185736,7.56022 0.713134,9.369971 0.555778,1.907059 0.609916,3.571875 0.116272,3.571875 -0.256171,0 -0.390846,0.07476 -0.299206,0.166398 0.09164,0.09164 0.944763,0.149831 1.896008,0.129191 1.574299,-0.03414 1.72961,0.01107 1.72961,0.500228 0,0.419148 -0.130985,0.508949 -0.595312,0.408244 -0.948993,-0.205842 -1.623473,-0.236969 -2.050521,-0.09457 -0.218281,0.07281 -1.40894,0.383967 -2.645833,0.69143 -1.23691,0.307483 -2.516849,0.637152 -2.844271,0.732772 -0.910282,0.265824 -0.77274,-1.611152 0.610815,-8.331791 0.500893,-2.43304 0.420069,-2.315501 1.915646,-2.791561 l 1.243851,-0.395841 -1.240234,0.154512 -1.239718,0.155029 0.353984,-1.343587 c 0.406873,-1.542356 1.571995,-4.617432 2.118217,-5.590873 0.08207,-0.146271 0.145322,-0.236541 0.191719,-0.243913 z m 26.206153,5.9986 1.357023,0.163298 c 0.746354,0.08968 1.551767,0.164065 1.790072,0.165365 0.295842,0.0016 0.706812,0.694409 1.295528,2.184879 0.474172,1.200529 1.182446,2.778142 1.573547,3.505729 0.391105,0.727604 0.932948,2.004185 1.204061,2.83652 0.612911,1.881736 0.773504,1.792969 0.418579,-0.230994 -0.391396,-2.231938 -0.582586,-7.235734 -0.276469,-7.235734 0.635809,0 3.024546,6.283464 3.54552,9.326562 0.343064,2.003857 0.293041,2.052554 -1.259871,1.233 -2.763026,-1.458177 -7.541887,-2.004613 -10.17509,-1.163236 -0.511406,0.163412 -0.595312,0.09523 -0.595312,-0.484208 0,-0.831985 0.434002,-0.990815 3.439583,-1.258322 2.248924,-0.200146 2.248666,-0.199708 -0.603581,-0.149345 -2.852247,0.05038 -2.851962,0.05039 -2.722314,-0.61805 0.0713,-0.367624 0.198797,-1.383085 0.283187,-2.256193 0.08439,-0.873108 0.281875,-2.58467 0.439249,-3.803385 z m -33.761247,1.737362 c 0.06593,-0.0043 0.08901,0.157231 0.09095,0.511597 0.0022,0.400165 -0.114929,0.727604 -0.26045,0.727604 -0.334524,0 -0.334524,-0.540685 0,-1.058333 0.07495,-0.115974 0.129923,-0.178298 0.1695,-0.180868 z m 9.18962,1.004073 c 0.01384,0.0015 0.02819,0.0091 0.04289,0.02377 0.06368,0.06368 0.460488,1.417508 0.8816,3.008086 0.42113,1.590562 0.853006,3.159703 0.960148,3.487125 0.218326,0.667061 -1.482406,0.92726 -1.877921,0.287321 -0.45417,-0.734846 -0.4362,-6.852278 -0.0067,-6.806303 z m -21.093803,1.204061 c 0.254398,-0.04584 0.340537,1.33979 0.448552,4.256588 0.214237,5.785712 0.274913,6.3031 1.418001,12.104687 0.645604,3.276721 0.663467,3.602445 0.377755,6.879167 -0.398984,4.575484 -0.448845,4.866607 -1.592151,9.260417 -0.769194,2.956009 -0.698409,3.156362 0.368969,1.043347 0.886053,-1.754027 1.744668,-4.204024 2.684591,-7.657931 l 0.432015,-1.5875 0.888318,1.952853 c 0.488388,1.073942 0.887801,2.05881 0.887801,2.189013 0,1.611264 5.880234,10.271893 8.266679,12.175485 l 0.99012,0.790132 -0.810803,-1.807125 c -0.886303,-1.974666 -2.197677,-6.595394 -2.463415,-8.679573 -0.190413,-1.493313 0.142936,-1.367336 1.262455,0.476457 0.844735,1.391222 4.299519,6.556701 4.957837,7.412984 1.403044,1.825004 1.66197,6.107077 0.623217,10.305314 -0.880755,3.559732 -1.547277,4.004392 -8.834602,5.897832 -2.380954,0.61863 -3.462321,1.17784 -3.462321,1.79059 0,0.15138 -0.327422,0.61674 -0.727605,1.03404 -0.702909,0.73298 -0.732091,0.87932 -0.859895,4.30827 l -0.132292,3.54913 -1.586466,-1.18752 C 25.867703,108.19888 17.114127,98.517723 15.931327,95.25 15.852317,95.031719 15.275733,93.942354 14.650269,92.828959 11.424177,87.086245 7.6103351,74.6484 8.172111,71.702083 8.3832382,70.594795 12.314802,64.245163 15.018205,60.645394 17.496919,57.344776 25.680911,49.140458 26.08833,49.54788 c 0.07829,0.07829 -0.0444,1.225917 -0.272851,2.549715 -0.427671,2.478183 -0.566383,12.109251 -0.150896,10.476363 0.111086,-0.436546 0.215841,-1.593139 0.233061,-2.570385 0.03695,-2.097172 0.700514,-7.299906 1.122929,-8.806698 0.617115,-2.201381 0.972357,-3.356243 1.196826,-3.396692 z m 42.557609,2.699577 c 0.09369,0.01168 0.209634,0.359027 0.433049,1.161686 0.290598,1.044103 0.33214,1.575755 0.137459,1.770435 -0.846504,0.846505 -1.274162,-0.679234 -0.733289,-2.616895 0.05822,-0.208577 0.106569,-0.322236 0.162781,-0.315226 z M 41.573173,50.8 c 0.230976,0 0.428287,1.120128 0.93741,5.323189 0.15852,1.308607 -0.225796,1.924748 -0.675927,1.083655 C 41.518495,56.616112 41.281123,50.8 41.573173,50.8 Z m 5.787244,3.190503 c -0.06394,0 -0.127712,0.02436 -0.176217,0.07286 -0.09701,0.09701 -0.01781,0.176216 0.176217,0.176216 0.194013,0 0.273226,-0.07921 0.176216,-0.176216 -0.04851,-0.0485 -0.112275,-0.07286 -0.176216,-0.07286 z m -1.080555,0.281636 c -0.09192,-0.0038 -0.196474,0.01294 -0.291971,0.05116 -0.211066,0.08446 -0.148546,0.147497 0.15968,0.160197 0.278916,0.01149 0.435185,-0.05109 0.347265,-0.13901 -0.04396,-0.04395 -0.123058,-0.06856 -0.214974,-0.07235 z m 29.996102,1.231967 c 0.105249,0.0022 0.212538,0.01093 0.320911,0.02636 1.408424,0.200336 1.484958,1.581675 0.126607,2.284098 -0.999439,0.516823 -1.395771,0.496861 -2.141471,-0.10697 -1.051534,-0.851476 0.115249,-2.236891 1.693953,-2.203483 z m 43.297096,0.555005 c -0.0168,0.0039 -0.0339,0.0082 -0.0512,0.0124 0.0116,0.0031 0.0271,0.01234 0.0362,0.01188 0.0141,-7.1e-4 0.0169,-0.01046 0.015,-0.02429 z m -4.02301,1.13068 c 0.0183,0.0475 0.04,0.08467 0.0641,0.0894 0.0373,0.0073 -0.0126,-0.05653 -0.061,-0.08785 -9.3e-4,-6.02e-4 -0.002,-3.44e-4 -0.003,-0.0016 z m -67.917815,0.03514 c 0.222836,5.98e-4 0.447064,0.04701 0.661458,0.144694 1.021653,0.465488 1.120703,1.089318 0.286804,1.806608 -1.362068,1.171614 -3.227296,0.560226 -2.585888,-0.847494 0.315768,-0.693057 0.969068,-1.105604 1.637626,-1.103808 z m 30.933512,1.247986 c 0.154109,0 0.280086,0.119062 0.280086,0.264583 0,0.145521 -0.05262,0.264583 -0.116788,0.264583 -0.06417,0 -0.190147,-0.119062 -0.280087,-0.264583 -0.08994,-0.145521 -0.03732,-0.264583 0.116789,-0.264583 z m 0.108521,2.521293 c 0.101939,-0.0048 0.203958,-0.0048 0.304374,5.17e-4 0.481978,0.02558 0.922885,0.170129 1.100708,0.457853 0.09362,0.151477 -0.04949,0.436315 -0.31781,0.632519 -0.82208,0.601131 -2.503207,0.377276 -2.503207,-0.333313 0,-0.447052 0.702254,-0.723884 1.415935,-0.757576 z m -27.965735,0.653707 c 0.930515,0 1.062691,0.232515 0.611332,1.075903 -0.30942,0.578135 -1.550991,0.697951 -2.051038,0.197921 -0.49637,-0.496387 0.382221,-1.273824 1.439706,-1.273824 z m 30.229162,0.340547 0.170016,0.773597 c 0.213333,0.971285 -0.383004,1.690294 -1.705839,2.057755 -1.098517,0.305163 -1.04099,0.304435 -1.783871,0.0052 C 76.933797,64.54846 76.2,63.559053 76.2,62.911922 c 0,-0.601024 0.159151,-0.591458 0.985986,0.05891 0.95247,0.749225 1.982239,0.670152 2.94194,-0.226342 z m -28.359509,0.567408 c 0.07888,0.0083 0.177464,0.171661 0.307475,0.498677 0.33969,0.854412 0.06441,1.609716 -0.859379,2.357996 -1.321116,1.070143 -3.136999,0.520128 -3.598747,-1.089856 -0.234069,-0.816141 -0.234095,-0.816352 0.5271,-0.422713 1.488121,0.769537 3.011491,0.250178 3.500561,-1.193726 0.03541,-0.104535 0.07566,-0.155345 0.12299,-0.150378 z m 59.230494,3.715535 c -9e-4,-1.4e-5 -0.002,4.49e-4 -0.004,0.001 -0.0302,0.02433 -0.0277,0.06742 -0.0155,0.108003 0.0105,-0.02153 0.0201,-0.04353 0.0274,-0.06614 0.004,-0.01206 7.3e-4,-0.04172 -0.008,-0.04289 z M 61.9125,70.114583 c -0.145521,0 -0.264583,0.178611 -0.264583,0.396875 0,0.218281 0.119062,0.396875 0.264583,0.396875 0.14552,0 0.264583,-0.178594 0.264583,-0.396875 0,-0.218264 -0.119063,-0.396875 -0.264583,-0.396875 z m -20.769792,1.058334 c -0.07276,0 -0.132291,0.05953 -0.132291,0.132291 0,0.07276 0.05953,0.132292 0.132291,0.132292 0.07276,0 0.132292,-0.05953 0.132292,-0.132292 0,-0.07276 -0.05953,-0.132291 -0.132292,-0.132291 z m 74.642472,1.355472 c -0.003,0.03224 -0.008,0.06459 -0.0139,0.09663 0.1296,-0.06011 0.13029,-0.084 0.0139,-0.09663 z m 2.77709,2.561084 c 7e-5,0.0016 -6e-5,0.0031 0,0.0047 1.5e-4,-0.0015 4.3e-4,-0.0031 5.2e-4,-0.0047 z m 1.42472,2.226738 c -0.006,0.02653 -0.0117,0.05302 -0.0176,0.07958 0.007,-0.02566 0.0142,-0.05108 0.0217,-0.07648 -0.001,-9.5e-4 -0.003,-0.0022 -0.004,-0.0031 z m -53.742455,1.035596 c -0.267974,0 -0.679212,0.07642 -1.157035,0.229443 -0.594129,0.19028 -0.561949,0.214538 0.315226,0.238228 0.537115,0.0145 1.050042,-0.09271 1.139982,-0.238228 0.09458,-0.153026 -0.03018,-0.229443 -0.298173,-0.229443 z m -4.456575,0.133325 c -0.237195,-0.01062 -0.404627,0.0388 -0.404627,0.132808 0,0.125341 0.297657,0.227893 0.661459,0.227893 0.363785,0 0.661458,-0.04549 0.661458,-0.101285 0,-0.0558 -0.297673,-0.158344 -0.661458,-0.227894 -0.09095,-0.01739 -0.177767,-0.02798 -0.256832,-0.03152 z m 12.955798,6.975285 c 0.07329,0 0.13581,1.875267 0.13901,4.167187 0.0058,4.192178 0.35131,5.951592 1.281058,6.526217 0.496281,0.306701 -0.738635,4.808169 -1.784387,6.504509 -0.407719,0.66146 -0.407661,0.66165 0.17725,0.15762 0.813734,-0.70119 0.76769,-0.50601 -0.833024,3.53725 -0.779816,1.96976 -1.61548,4.12708 -1.857251,4.79454 -0.655639,1.81004 -1.028467,2.25006 -1.462959,1.72651 -2.735999,-3.29672 -8.069558,-3.61533 -11.613762,-0.69402 -1.283757,1.05819 -1.255355,1.07797 -1.607137,-1.12138 -0.511608,-3.19853 -0.822139,-5.33993 -0.824239,-5.68285 -0.0031,-0.51116 4.194389,-0.18753 4.811593,0.37103 0.264807,0.23966 0.540639,0.37614 0.613399,0.30334 0.465401,-0.46542 -1.108284,-1.10104 -3.196704,-1.29139 -2.737608,-0.24953 -2.436349,0.0397 -2.652035,-2.54661 -0.26691,-3.200709 0.165636,-3.307309 2.932638,-0.72244 1.155119,1.0791 2.134995,1.96215 2.177645,1.96215 0.04265,0 -0.32898,-0.57837 -0.82579,-1.28519 -1.688585,-2.402373 -2.373817,-4.105754 -1.736845,-4.318082 0.489435,-0.163145 1.025753,-2.161359 1.037663,-3.867464 0.01161,-1.66562 0.01137,-1.665476 0.873332,-1.503785 1.781937,0.334298 5.588085,-1.398375 9.41803,-4.287076 1.218955,-0.919395 2.35349,-1.671733 2.520776,-1.671733 0.167285,0 0.748391,-0.238126 1.291394,-0.529167 0.543023,-0.291025 1.047055,-0.529166 1.120345,-0.529166 z m -24.25175,5.012614 c 0.169543,0.03613 0.717154,0.814288 1.332219,1.911511 0.697017,1.243408 1.521733,2.617723 1.832446,3.054077 0.85118,1.195381 -0.775322,2.621382 -4.311881,3.780131 -1.018629,0.333756 -1.989519,0.657119 -2.157491,0.718819 -0.16799,0.0617 0.206995,-0.938048 0.83354,-2.22157 0.62656,-1.283502 1.402374,-3.345756 1.723926,-4.582666 0.321567,-1.236893 0.636176,-2.420149 0.698666,-2.629297 0.0079,-0.02636 0.02435,-0.03619 0.04857,-0.031 z m 26.130188,0.925008 c 0.05957,-0.02923 0.07863,0.160456 0.08837,0.610815 0.01023,0.472943 -0.100459,0.859896 -0.24598,0.859896 -0.314088,0 -0.314088,-0.459678 0,-1.190625 0.07146,-0.166292 0.121874,-0.262546 0.157613,-0.280086 z m -19.341455,1.279508 c 0.104755,0.02912 0.246641,0.250004 0.409278,0.72037 0.276721,0.800348 0.50698,1.544522 0.51108,1.653645 0.01803,0.480269 -0.740344,0.13987 -0.884184,-0.396875 -0.31548,-1.177175 -0.266683,-2.041211 -0.03617,-1.97714 z m 43.347739,9.574613 c 0.0839,-0.004 0.15596,0.002 0.21394,0.0207 0.81621,0.25906 0.44705,0.70167 -0.861959,1.03404 -1.314131,0.33367 -4.122945,2.52949 -8.302336,6.48953 -3.609917,3.42046 -8.498772,7.64119 -10.716142,9.25215 -1.091106,0.79271 -2.914189,2.13216 -4.050915,2.97656 -1.614751,1.19949 -2.273643,1.53531 -3.013253,1.53531 h -0.946712 l 0.897103,-0.60979 c 2.918822,-1.98448 8.426775,-6.17138 10.818461,-8.22327 2.563044,-2.19874 8.247534,-7.29869 8.863541,-7.95197 1.824819,-1.93503 5.839263,-4.45805 7.098272,-4.52323 z m -63.294325,1.24747 c 0.267114,0.0539 0.564468,0.53836 1.293461,1.92908 1.20838,2.30506 2.71531,4.44307 5.132504,7.28379 3.693031,4.3401 4.238831,4.92051 7.282242,7.73906 2.15265,1.99371 2.317363,2.39875 0.68368,1.68155 -1.518088,-0.66643 -10.103981,-9.99935 -12.074199,-13.12478 -1.378205,-2.18615 -2.849787,-5.276 -2.589506,-5.43687 0.09717,-0.0601 0.18278,-0.0898 0.271818,-0.0718 z m 36.201408,0.28628 c -0.05535,0.004 -0.116169,0.0159 -0.179834,0.0351 -0.254661,0.0769 -1.415537,0.39622 -2.579687,0.71004 -2.324007,0.62648 -3.571875,1.17636 -3.571875,1.57354 0,0.4096 0.408335,0.30082 0.897103,-0.23926 0.247508,-0.27351 0.95092,-0.57577 1.562695,-0.67127 1.799818,-0.28084 4.154785,-0.99809 4.154785,-1.26556 0,-0.10212 -0.117151,-0.15505 -0.283187,-0.14263 z m 27.855667,0.48731 c 0.40669,0.0149 0.78343,0.23424 1.28932,0.57516 2.5189,1.69748 2.47794,4.91588 -0.0884,6.8709 -3.564415,2.7159 -10.333792,6.82125 -10.678937,6.47609 -0.07392,-0.0739 0.766587,-1.93316 1.867586,-4.13153 1.101001,-2.19836 1.942353,-3.99717 1.869653,-3.99717 -0.0727,0 -0.981135,1.69664 -2.018481,3.77031 -2.419059,4.83557 -2.545929,5.00323 -4.243152,5.60017 -0.778162,0.27369 -1.533963,0.58322 -1.679484,0.68782 -0.145521,0.10459 -1.067807,0.45357 -2.049487,0.77566 -2.476937,0.81267 -7.321234,2.06424 -7.45846,1.92701 -0.06236,-0.0624 0.700274,-0.66727 1.694987,-1.3441 0.994713,-0.67684 2.802744,-2.03062 4.017326,-3.00808 1.214585,-0.97762 3.696432,-2.8809 5.515426,-4.22972 1.850544,-1.37223 4.997114,-4.11112 7.14375,-6.21823 2.883263,-2.83002 3.923593,-3.78707 4.818313,-3.75429 z m -66.358226,1.20975 c 0.372784,0.0113 0.84651,0.96554 2.547131,3.92224 0.920696,1.60073 2.06792,3.47352 2.549715,4.1615 1.447402,2.06679 3.203761,4.32446 3.655591,4.69946 0.233591,0.19387 0.665492,0.69086 0.959631,1.1038 0.294158,0.4131 0.496909,0.74116 0.450619,0.72916 -2.293232,-0.59277 -3.527498,-1.52216 -3.604948,-2.71456 -0.0918,-1.41333 -0.580326,-1.43014 -0.580326,-0.0207 0,0.91563 -1.8e-5,0.91583 -1.12448,0.34674 -2.001271,-1.0127 -2.490368,-1.48598 -2.843754,-2.74815 -0.185622,-0.66304 -0.440299,-1.26857 -0.565857,-1.34617 -0.304966,-0.18849 -0.292579,-0.0933 0.15658,1.17977 0.491289,1.39248 0.215229,1.403 -1.707906,0.0672 l -1.455208,-1.0113 -0.07338,-3.29128 c -0.07363,-3.29127 -0.07385,-3.29175 0.830957,-4.30878 0.39445,-0.44337 0.581956,-0.77573 0.805636,-0.76894 z m 60.878454,4.05453 c -0.07276,0 -0.132291,0.0595 -0.132291,0.13229 0,0.0728 0.05953,0.13229 0.132291,0.13229 0.07276,0 0.132292,-0.0595 0.132292,-0.13229 0,-0.0728 -0.05953,-0.13229 -0.132292,-0.13229 z m -31.547428,3.05511 c 2.94424,0.0597 5.750553,1.15374 5.750553,2.94762 0,0.53717 -0.675965,0.41178 -1.5012,-0.27801 -2.782262,-2.32622 -6.494708,-2.54192 -9.376689,-0.54467 -1.404049,0.97286 -1.68127,0.54563 -0.379305,-0.58446 1.156178,-1.00369 3.028018,-1.4874 4.916496,-1.53841 0.19672,-0.005 0.393859,-0.006 0.590145,-0.002 z"
       sodipodi:nodetypes="ssscsssssssccccccsccccccccscccssscscccssscccsssscsscsccccccccccccscscscsssscccccsssssssssssscssccccscsssssssscsscssssssscscccsscsscssssssssssssscsssssscscsssscsssssscsscscsscssssccscsscssscccssssccsscscccsscccccsssccscsssssssssssscccssscccccsccscscsssccscccsscsssssccscscsssscsscssssscssssssssssssscssssscssscssccssssssssssscsssssscsccscsccccscscscccccccssssssssssccccccccccccssssssssssssscscsssccscscssssssscsscsssssscscssssssssssssssccsssssccccccccscsccccccssscsccsscssscssssscscssssssccsscssscccsssssssscscccccc" /></g></svg>
